<?xml version="1.0" encoding="UTF-8"?>
<svg id="svg20" width="64" height="64" version="1" xmlns="http://www.w3.org/2000/svg" xmlns:cc="http://creativecommons.org/ns#" xmlns:dc="http://purl.org/dc/elements/1.1/" xmlns:rdf="http://www.w3.org/1999/02/22-rdf-syntax-ns#">
 <metadata id="metadata26">
  <rdf:RDF>
   <cc:Work rdf:about="">
    <dc:format>image/svg+xml</dc:format>
    <dc:type rdf:resource="http://purl.org/dc/dcmitype/StillImage"/>
    <dc:title/>
   </cc:Work>
  </rdf:RDF>
 </metadata>
 <g id="g14" transform="matrix(1.9988 0 0 1.9988 7.9997 8.0001)" fill="#fff">
  <path id="path12" d="m24.013 1e-3s-3.601-0.101-7.2 1.7c-1.1 0.5-2.3 1.3-3.3 2.3-1.617 1.617-4.129 4.594-6.107 7h-4.393l-2 3 3.392 0.917c0.01 0.121 0.042 0.292 0.136 0.523l-0.527 1.159s-0.2 0.4 1.3 2c1.6 1.601 2.1 1.4 2.1 1.4l1.243-0.564c0.186 0.058 0.324 0.078 0.414 0.078l0.943 3.486 3-2v-4.527c2.423-1.959 5.396-4.421 7-5.973 1-1 1.8-2.2 2.399-3.3 1.699-3.599 1.6-7.199 1.6-7.199zm-7 9c-1.101 0-2-0.9-2-2 0-1.101 0.899-2 2-2 1.1 0 2 0.899 2 2 0 1.1-0.901 2-2 2zm-10.5 12c0.2 0.101 0.3 0.2 0.5 0.3-0.2 0.2-0.4 0.5-0.601 0.7-2.301 2.3-6.399 2-6.399 2s-0.3-4.101 2-6.399c0.2-0.201 0.5-0.399 0.7-0.601 0.1 0.2 0.199 0.3 0.3 0.5-1.5 1.899-1.3 4.8-1.3 4.8s2.899 0.2 4.8-1.3z"/>
 </g>
 <path id="path4" d="m32 4c-15.512 0-28 12.488-28 28 0 0.11356 0.011285 0.22403 0.017578 0.33594 0.35153-15.202 12.694-27.336 27.982-27.336 15.289 0 27.631 12.134 27.982 27.336 0.006271-0.11182 0.017578-0.22249 0.017578-0.33594 0-15.512-12.488-28-28-28z" fill="#fff" opacity=".1"/>
</svg>
