<?xml version="1.0" encoding="UTF-8"?>
<svg id="svg56" width="86px" height="86px" enable-background="new 0 0 86 86" version="1.1" viewBox="0 0 86 86" xml:space="preserve" xmlns="http://www.w3.org/2000/svg" xmlns:cc="http://creativecommons.org/ns#" xmlns:dc="http://purl.org/dc/elements/1.1/" xmlns:rdf="http://www.w3.org/1999/02/22-rdf-syntax-ns#"><metadata id="metadata62"><rdf:RDF><cc:Work rdf:about=""><dc:format>image/svg+xml</dc:format><dc:type rdf:resource="http://purl.org/dc/dcmitype/StillImage"/><dc:title/></cc:Work></rdf:RDF></metadata><defs id="defs60"><radialGradient id="SVGID_1_" cx="481.85" cy="348.98" r="44.79" gradientTransform="matrix(0 .953 .9513 0 -288.89 -416.21)" gradientUnits="userSpaceOnUse">
		<stop id="stop3" stop-color="#6EFFF8" offset="0"/>
		<stop id="stop5" stop-color="#009DFF" offset="1"/>
	</radialGradient></defs>

<path id="path8" d="m0.48 84.261v-41.261c0-23.574 19.078-42.683 42.611-42.683h41.19c0.784 0 1.42 0.637 1.42 1.423v41.26c0 23.574-19.078 42.684-42.611 42.684h-41.19c-0.784 0-1.42-0.638-1.42-1.423z" fill="url(#SVGID_1_)"/>
<g id="g16" transform="matrix(2.6651 0 0 2.6651 11 11)" fill="#fff" opacity=".9"><g id="g14"><path id="path12" d="m24.013 1e-3s-3.601-0.101-7.2 1.7c-1.1 0.5-2.3 1.3-3.3 2.3-1.617 1.617-4.129 4.594-6.107 7h-4.393l-2 3 3.392 0.917c0.01 0.121 0.042 0.292 0.136 0.523l-0.527 1.159s-0.2 0.4 1.3 2c1.6 1.601 2.1 1.4 2.1 1.4l1.243-0.564c0.186 0.058 0.324 0.078 0.414 0.078l0.943 3.486 3-2v-4.527c2.423-1.959 5.396-4.421 7-5.973 1-1 1.8-2.2 2.399-3.3 1.699-3.599 1.6-7.199 1.6-7.199zm-7 9c-1.101 0-2-0.9-2-2 0-1.101 0.899-2 2-2 1.1 0 2 0.899 2 2 0 1.1-0.901 2-2 2zm-10.5 12c0.2 0.101 0.3 0.2 0.5 0.3-0.2 0.2-0.4 0.5-0.601 0.7-2.301 2.3-6.399 2-6.399 2s-0.3-4.101 2-6.399c0.2-0.201 0.5-0.399 0.7-0.601 0.1 0.2 0.199 0.3 0.3 0.5-1.5 1.899-1.3 4.8-1.3 4.8s2.899 0.2 4.8-1.3z"/></g></g></svg>
